<svg width="12" height="12" viewBox="0 0 12 12" fill="none" xmlns="http://www.w3.org/2000/svg">
<path fill-rule="evenodd" clip-rule="evenodd" d="M5.5 2C3.567 2 2 3.567 2 5.5C2 7.433 3.567 9 5.5 9C7.433 9 9 7.433 9 5.5C9 3.567 7.433 2 5.5 2ZM1 5.5C1 3.01472 3.01472 1 5.5 1C7.98528 1 10 3.01472 10 5.5C10 7.98528 7.98528 10 5.5 10C3.01472 10 1 7.98528 1 5.5Z" fill="#9396AA"/>
<path fill-rule="evenodd" clip-rule="evenodd" d="M7.97144 7.97144C8.16671 7.77618 8.48329 7.77618 8.67855 7.97144L10.8536 10.1464C11.0488 10.3417 11.0488 10.6583 10.8536 10.8536C10.6583 11.0488 10.3417 11.0488 10.1464 10.8536L7.97144 8.67855C7.77618 8.48329 7.77618 8.16671 7.97144 7.97144Z" fill="#9396AA"/>
</svg>
