<svg width="16" height="17" viewBox="0 0 16 17" fill="none" xmlns="http://www.w3.org/2000/svg">
<path fill-rule="evenodd" clip-rule="evenodd" d="M7.3335 7.16659C6.96531 7.16659 6.66683 7.46506 6.66683 7.83325V13.8333C6.66683 14.2014 6.96531 14.4999 7.3335 14.4999H13.3335C13.7017 14.4999 14.0002 14.2014 14.0002 13.8333V7.83325C14.0002 7.46506 13.7017 7.16659 13.3335 7.16659H7.3335ZM5.3335 7.83325C5.3335 6.72868 6.22893 5.83325 7.3335 5.83325H13.3335C14.4381 5.83325 15.3335 6.72868 15.3335 7.83325V13.8333C15.3335 14.9378 14.4381 15.8333 13.3335 15.8333H7.3335C6.22893 15.8333 5.3335 14.9378 5.3335 13.8333V7.83325Z" fill="#141B47"/>
<path fill-rule="evenodd" clip-rule="evenodd" d="M2.6665 2.50008C2.48969 2.50008 2.32012 2.57032 2.1951 2.69534C2.07008 2.82037 1.99984 2.98994 1.99984 3.16675V9.16675C1.99984 9.34356 2.07008 9.51313 2.1951 9.63815C2.32012 9.76318 2.48969 9.83342 2.6665 9.83342H3.33317C3.70136 9.83342 3.99984 10.1319 3.99984 10.5001C3.99984 10.8683 3.70136 11.1667 3.33317 11.1667H2.6665C2.13607 11.1667 1.62736 10.956 1.25229 10.581C0.877218 10.2059 0.666504 9.69718 0.666504 9.16675V3.16675C0.666504 2.63632 0.877217 2.12761 1.25229 1.75253C1.62736 1.37746 2.13607 1.16675 2.6665 1.16675H8.6665C9.19694 1.16675 9.70564 1.37746 10.0807 1.75253C10.4558 2.12761 10.6665 2.63631 10.6665 3.16675V3.83341C10.6665 4.2016 10.368 4.50008 9.99984 4.50008C9.63165 4.50008 9.33317 4.2016 9.33317 3.83341V3.16675C9.33317 2.98994 9.26293 2.82037 9.13791 2.69534C9.01288 2.57032 8.84332 2.50008 8.6665 2.50008H2.6665Z" fill="#141B47"/>
</svg>
