<svg width="16" height="17" viewBox="0 0 16 17" fill="none" xmlns="http://www.w3.org/2000/svg">
<path fill-rule="evenodd" clip-rule="evenodd" d="M1.25229 3.08579C1.62736 2.71071 2.13607 2.5 2.6665 2.5H7.33317C7.70136 2.5 7.99984 2.79848 7.99984 3.16667C7.99984 3.53486 7.70136 3.83333 7.33317 3.83333H2.6665C2.48969 3.83333 2.32012 3.90357 2.1951 4.0286C2.07008 4.15362 1.99984 4.32319 1.99984 4.5V13.8333C1.99984 14.0101 2.07007 14.1797 2.1951 14.3047C2.32012 14.4298 2.48969 14.5 2.6665 14.5H11.9998C12.1766 14.5 12.3462 14.4298 12.4712 14.3047C12.5963 14.1797 12.6665 14.0101 12.6665 13.8333V9.16667C12.6665 8.79848 12.965 8.5 13.3332 8.5C13.7014 8.5 13.9998 8.79848 13.9998 9.16667V13.8333C13.9998 14.3638 13.7891 14.8725 13.4141 15.2475C13.039 15.6226 12.5303 15.8333 11.9998 15.8333H2.6665C2.13607 15.8333 1.62736 15.6226 1.25229 15.2475C0.877218 14.8725 0.666504 14.3638 0.666504 13.8333V4.5C0.666504 3.96957 0.877217 3.46086 1.25229 3.08579Z" fill="#141B47"/>
<path fill-rule="evenodd" clip-rule="evenodd" d="M13.3332 2.41903C13.1349 2.41903 12.9448 2.49779 12.8046 2.63798L6.60183 8.84074L6.24943 10.2503L7.65902 9.89793L13.8618 3.69517C14.002 3.55498 14.0807 3.36483 14.0807 3.16657C14.0807 2.96831 14.002 2.77817 13.8618 2.63798C13.7216 2.49779 13.5314 2.41903 13.3332 2.41903ZM11.8618 1.69517C12.252 1.30493 12.7813 1.08569 13.3332 1.08569C13.8851 1.08569 14.4143 1.30493 14.8046 1.69517C15.1948 2.08541 15.4141 2.61469 15.4141 3.16657C15.4141 3.71846 15.1948 4.24774 14.8046 4.63798L8.47126 10.9713C8.38582 11.0568 8.27876 11.1174 8.16154 11.1467L5.49488 11.8133C5.26769 11.8701 5.02737 11.8036 4.86178 11.638C4.69619 11.4724 4.62963 11.2321 4.68642 11.0049L5.35309 8.33822C5.3824 8.22099 5.44301 8.11394 5.52845 8.0285L11.8618 1.69517Z" fill="#141B47"/>
</svg>
