<svg width="16" height="17" viewBox="0 0 16 17" fill="none" xmlns="http://www.w3.org/2000/svg">
<path fill-rule="evenodd" clip-rule="evenodd" d="M4.23989 6.65454C4.52275 6.41883 4.94312 6.45704 5.17883 6.73989L8.00002 10.1253L10.8212 6.73989C11.0569 6.45704 11.4773 6.41883 11.7601 6.65454C12.043 6.89025 12.0812 7.31062 11.8455 7.59347L8.51216 11.5935C8.3855 11.7455 8.19787 11.8333 8.00002 11.8333C7.80216 11.8333 7.61453 11.7455 7.48787 11.5935L4.15454 7.59347C3.91883 7.31062 3.95704 6.89025 4.23989 6.65454Z" fill="#141B47"/>
<path fill-rule="evenodd" clip-rule="evenodd" d="M1.3335 2.49992C1.3335 2.13173 1.63197 1.83325 2.00016 1.83325H4.40016C4.58915 1.83325 4.76926 1.91347 4.89569 2.05394L8.00016 5.50335L11.1046 2.05394C11.2311 1.91347 11.4112 1.83325 11.6002 1.83325H14.0002C14.3684 1.83325 14.6668 2.13173 14.6668 2.49992V14.5C14.6668 14.8682 14.3684 15.1667 14.0002 15.1667H11.3335C10.9653 15.1667 10.6668 14.8682 10.6668 14.5V7.16659C10.6668 6.7984 10.9653 6.49992 11.3335 6.49992C11.7017 6.49992 12.0002 6.7984 12.0002 7.16659V13.8333H13.3335V3.16659H11.8971L8.49569 6.9459C8.36926 7.08637 8.18915 7.16658 8.00016 7.16658C7.81117 7.16658 7.63106 7.08637 7.50463 6.9459L4.10325 3.16659H2.66683V13.8333H4.00016V7.16659C4.00016 6.7984 4.29864 6.49992 4.66683 6.49992C5.03502 6.49992 5.3335 6.7984 5.3335 7.16659V14.5C5.3335 14.8682 5.03502 15.1667 4.66683 15.1667H2.00016C1.63197 15.1667 1.3335 14.8682 1.3335 14.5V2.49992Z" fill="#141B47"/>
</svg>
