<svg width="16" height="17" viewBox="0 0 16 17" fill="none" xmlns="http://www.w3.org/2000/svg">
<path fill-rule="evenodd" clip-rule="evenodd" d="M10.5202 2.09188C9.98937 2.09188 9.48028 2.30275 9.10493 2.6781L2.97826 8.80477C2.35273 9.4303 2.0013 10.2787 2.0013 11.1634C2.0013 12.048 2.35273 12.8964 2.97826 13.522C3.6038 14.1475 4.45222 14.4989 5.33686 14.4989C6.22151 14.4989 7.06992 14.1475 7.69546 13.522L13.8221 7.39529C14.0825 7.13494 14.5046 7.13494 14.7649 7.39529C15.0253 7.65564 15.0253 8.07775 14.7649 8.3381L8.63826 14.4648C7.76268 15.3404 6.57513 15.8323 5.33686 15.8323C4.09859 15.8323 2.91104 15.3404 2.03546 14.4648C1.15987 13.5892 0.667969 12.4016 0.667969 11.1634C0.667969 9.92509 1.15987 8.73754 2.03546 7.86196L8.16212 1.73529C8.78752 1.10989 9.63575 0.758545 10.5202 0.758545C11.4046 0.758545 12.2529 1.10989 12.8783 1.73529C13.5037 2.36069 13.855 3.20891 13.855 4.09336C13.855 4.97781 13.5037 5.82603 12.8783 6.45143L6.74493 12.5781C6.36972 12.9533 5.86082 13.1641 5.33019 13.1641C4.79956 13.1641 4.29067 12.9533 3.91546 12.5781C3.54024 12.2029 3.32945 11.694 3.32945 11.1634C3.32945 10.6327 3.54024 10.1238 3.91546 9.74862L9.57573 4.09501C9.83624 3.83482 10.2583 3.83506 10.5185 4.09557C10.7787 4.35607 10.7785 4.77818 10.518 5.03838L4.85826 10.6914C4.73328 10.8166 4.66279 10.9865 4.66279 11.1634C4.66279 11.3404 4.7331 11.5101 4.85826 11.6353C4.98343 11.7605 5.15319 11.8308 5.33019 11.8308C5.5072 11.8308 5.67696 11.7605 5.80212 11.6353L11.9355 5.50862C12.3106 5.1333 12.5217 4.62407 12.5217 4.09336C12.5217 3.56253 12.3108 3.05345 11.9355 2.6781C11.5601 2.30275 11.051 2.09188 10.5202 2.09188Z" fill="#141B47"/>
</svg>
